<?xml version="1.0" ?><!DOCTYPE svg  PUBLIC '-//W3C//DTD SVG 1.1//EN'  'http://www.w3.org/Graphics/SVG/1.1/DTD/svg11.dtd'><svg enable-background="new 0 0 800 800" height="24px" id="GUIDE" version="1.1" viewBox="0 0 16 16" width="24px" xml:space="preserve" xmlns="http://www.w3.org/2000/svg" xmlns:cc="http://creativecommons.org/ns#" xmlns:dc="http://purl.org/dc/elements/1.1/" xmlns:inkscape="http://www.inkscape.org/namespaces/inkscape" xmlns:rdf="http://www.w3.org/1999/02/22-rdf-syntax-ns#" xmlns:sodipodi="http://sodipodi.sourceforge.net/DTD/sodipodi-0.dtd" xmlns:svg="http://www.w3.org/2000/svg" xmlns:xlink="http://www.w3.org/1999/xlink"><g><path d="M772.282,343.189c-5.862-38.62-17.613-75.873-34.924-110.722c-2.863-5.766-8.328-9.8-14.682-10.84   s-12.818,1.042-17.371,5.594l-38.387,38.381l-104.522-28.006L534.39,133.074l28.01-28.01c9.939,5.497,19.682,11.541,29.186,18.137   c9.073,6.297,21.535,4.046,27.834-5.028c6.297-9.075,4.047-21.536-5.028-27.834c-14.651-10.167-29.973-19.231-45.819-27.151   c-0.697-0.4-1.414-0.755-2.145-1.064c-61.027-30.009-129.762-43.16-198.365-37.351c-43.349,3.668-85.303,14.659-124.697,32.666   c-40.777,18.639-77.667,44.304-109.645,76.282C97.779,169.661,69.948,211.577,51,258.302   c-18.297,45.122-27.575,92.795-27.575,141.695c0,48.898,9.278,96.572,27.575,141.693c18.948,46.727,46.779,88.642,82.721,124.582   c35.94,35.941,77.855,63.773,124.582,82.721c45.122,18.299,92.795,27.576,141.694,27.576c48.899,0,96.573-9.277,141.694-27.576   c46.727-18.947,88.642-46.779,124.582-82.721c56.887-56.887,93.473-128.849,105.801-208.106   C778.005,420.03,778.075,381.347,772.282,343.189z M713.036,276.057c9.67,24.376,16.319,49.463,20.058,74.765l-24.386-6.535   l-13.505-50.399L713.036,276.057z M656.565,304.239l13.506,50.4l-76.518,76.516l-50.398-13.505l-28.008-104.521l36.896-36.896   L656.565,304.239z M574.313,611.21l-104.522-28.008l-13.504-50.399l39.315-39.315c7.811-7.811,7.811-20.475,0-28.285   c-7.812-7.811-20.475-7.81-28.285,0l-39.314,39.316l-104.521-28.008l-28.008-104.521l76.516-76.515l104.521,28.007l30.996,115.676   c1.849,6.901,7.24,12.293,14.143,14.142l61.553,16.493l28.006,104.521L574.313,611.21z M91.285,455.706l13.506,50.4l-17.871,17.87   c-9.476-23.944-16.187-49.001-19.94-74.784L91.285,455.706z M143.427,495.753l-13.506-50.4l76.518-76.515l50.398,13.505   l28.008,104.521l-36.896,36.896L143.427,495.753z M225.679,188.783l104.522,28.007l13.504,50.399l-76.516,76.517l-50.399-13.505   l-28.007-104.522L225.679,188.783z M445.353,129.921l50.4,13.505l28.007,104.522l-36.896,36.896l-104.522-28.007l-13.504-50.399   L445.353,129.921z M293.886,695.202l50.4,13.506l6.513,24.307c-25.782-3.754-50.839-10.465-74.784-19.941L293.886,695.202z    M354.639,670.071l-50.399-13.506l-28.007-104.521l36.896-36.896l104.522,28.008l13.504,50.399L354.639,670.071z M506.105,104.79   l-50.399-13.505l-6.553-24.453c25.404,3.741,50.527,10.403,74.843,20.068L506.105,104.79z M400.2,63.232   c2.199,0,4.399,0.034,6.599,0.077l10.271,38.328l-76.515,76.517l-104.522-28.007l-10.235-38.2   C278.989,79.696,339.449,63.232,400.2,63.232z M190.899,136.254l6.496,24.245L160.5,197.395l-24.266-6.502   c7.984-10.033,16.568-19.687,25.77-28.888C171.231,152.777,180.89,144.208,190.899,136.254z M111.886,225.78l38.26,10.251   l28.008,104.523l-76.516,76.515l-38.13-10.217c-0.045-2.283-0.083-4.566-0.083-6.855C63.424,337.594,80.307,277.791,111.886,225.78   z M105.055,562.409l28.019-28.02l104.522,28.007l28.007,104.521l-28.021,28.02c-27.396-15.138-52.834-34.204-75.579-56.948   C139.259,615.243,120.193,589.806,105.055,562.409z M399.997,736.569c-2.29,0-4.573-0.038-6.856-0.084l-10.217-38.131   l76.515-76.516l104.522,28.008l10.251,38.26C522.202,719.687,462.399,736.569,399.997,736.569z M609.1,663.761l-6.502-24.267   l36.896-36.896l24.257,6.499c-7.96,10.024-16.546,19.677-25.761,28.893C628.786,647.19,619.133,655.774,609.1,663.761z    M688.046,574.196l-38.2-10.236l-28.007-104.521l76.516-76.516l38.276,10.258C737.895,456.439,721.288,519.328,688.046,574.196z"/><path d="M637.989,162.004c3.904,3.905,9.023,5.858,14.142,5.858s10.237-1.953,14.142-5.858c7.811-7.811,7.811-20.474,0-28.284   c-0.803-0.803-1.608-1.603-2.417-2.396c-7.88-7.739-20.542-7.625-28.283,0.255c-7.739,7.88-7.626,20.543,0.255,28.283   C636.55,160.572,637.271,161.286,637.989,162.004z"/></g></svg>